# xmcd
#
# Track frame offsets: 
#        150
#        16435
#        30100
#        41785
#        52492
#        65092
#        70577
#        80512
#        94575
#        108717
#        121880
#        135097
#        145142
#        156790
#        169507
#        181400
#        194672
#        208297
#
# Disc length: 2951 seconds
#
# Revision: 0
# Processed by: cddbd v1.5PL3 Copyright (c) Steve Scherf et al.
# Submitted via: ExactAudioCopy v0.95a5
#
DISCID=010b8512
DTITLE=George Herbert Moore - Blues Came To Burgaw
DYEAR=1998
DGENRE=Blues
TTITLE0=My Starter Won't Start This Morning
TTITLE1=Hardworkin' Man
TTITLE2=You Don't Have To Go
TTITLE3=O Lordy Mama
TTITLE4=I'm Wild About You Baby
TTITLE5=Got To Do Better
TTITLE6=My Home Is In the Delta
TTITLE7=Shame, Shame, Shame
TTITLE8=The Things That I Used To Do
TTITLE9=Louise
TTITLE10=Goin' To New York
TTITLE11=Baby Please Don't Go
TTITLE12=That's All Right
TTITLE13=Shotgun Blues
TTITLE14=Come On Baby
TTITLE15=Stop and Think
TTITLE16=Bright Lights, Big City
TTITLE17=Today Has Been A Lonesome Day
EXTD=
EXTT0=
EXTT1=
EXTT2=
EXTT3=
EXTT4=
EXTT5=
EXTT6=
EXTT7=
EXTT8=
EXTT9=
EXTT10=
EXTT11=
EXTT12=
EXTT13=
EXTT14=
EXTT15=
EXTT16=
EXTT17=
PLAYORDER=
